<?xml version="1.0" encoding="UTF-8"?>
<svg id="Layer_1" xmlns="http://www.w3.org/2000/svg" version="1.1" viewBox="0 0 441 419">
  <!-- Generator: Adobe Illustrator 29.8.1, SVG Export Plug-In . SVG Version: 2.1.1 Build 2)  -->
  <defs>
    <style>
      .st0 {
        fill: #fff;
      }
    </style>
  </defs>
  <path class="st0" d="M293.43,123.44c-.24.5-.73.85-1.28.91-12.63,1.46-26.05-.29-31.22-1.1-8.64-8.63-17.99-18.22-24.88-26.61-.71-.86-.74-2.09-.09-2.99,9.83-13.7,18.83-24.58,22.63-28.88,10.87-2.37,21.71-4.47,29.03-4.77.55-.02,1.08.23,1.4.68,9.44,13.13,16.19,25.7,18.35,30.3-4.33,11.64-9.55,23.4-13.96,32.47h0ZM281.38,145.65c-6.96,11.65-12.25,18.68-13.94,20.82-2.3,3.25-8.16,11.71-17.27,20.26-.58.54-1.34.86-2.14.9-11.41.48-22.01-.32-26.14-1.23-3.5-1.45-11.64-5.11-21.26-10.43-.84-.46-1.33-1.37-1.27-2.32.5-7.46,2.87-18.08,4.96-29.31,5.18-9.09,10.54-19.46,16.1-27.97.59-.9,1.68-1.31,2.72-1.03,16.66,4.55,31.11,8,36.98,9.32,8.04,9.32,15.82,15.87,21.06,19.93.33.25.41.71.2,1.06M180.6,161.84c-.84.52-1.92.49-2.73-.08-7.25-5.13-15.91-11.69-23.12-18.43-4.25-7.27-7.53-16.57-9.82-24.48-.15-.51-.03-1.06.3-1.47,8.09-9.94,17.79-17.81,21.85-20.81,9.15,3.95,19.66,7.43,28.85,10.49.94.31,1.6,1.15,1.68,2.14,1.3,16.35,4.29,29.58,5.09,34.63-3.43,3.67-12.4,11.98-22.12,18.01M140.32,97.5c-1.2-7.72-1.99-15.83-2.08-19.54-.2-8.57,1.16-16.17,2.74-23.2.26-1.15.86-2.19,1.73-2.99,4.6-4.21,12.9-11.63,18.15-15,4.94-3.17,18.68-7.6,24.35-9.25,1.1-.32,2.27.16,2.83,1.16.68,1.2,1.4,2.39,2.15,3.55,4.46,6.94,9.38,12.92,11.45,15.51-2.74,10.89-3.91,23.11-4.44,33.41-.05.97-.67,1.81-1.57,2.17-14.33,5.59-25.17,9.97-28.81,11.64-9.85.42-19.23,2.09-25.56,3.2-.44.08-.86-.22-.94-.66,0,0,0-.01,0-.02h0ZM212.57,22.68c.39-.61,1.03-1.01,1.75-1.11,14.74-1.95,28.22-2.23,33.41-2.09,9.43,6.27,18.65,14.55,26.01,22.39.52.55.59,1.38.18,2.01-5.25,8.21-12.88,16.09-16.24,19.52-12.44,2.94-25.62,7.23-36.32,10.74-1.04.34-2.18-.05-2.81-.95-8.12-11.79-13.28-21.9-15.3-25.66,2.2-9.83,5.27-18.59,9.32-24.86h0ZM311.02,119.5c-.21.09-.45,0-.55-.21-.02-.05-.03-.1-.04-.15-.62-12.11-1.73-23.87-2.32-28.17.05-10.46-1.69-21.31-3.42-29.31-.05-.22.09-.44.32-.49.06-.01.11-.01.17,0,9.89,2.02,13.07,5.73,13.07,5.73-5.24-11.74-12.79-20.59-20.99-27.28-7.01-14.68-15.08-21.47-15.08-21.47.65,3.25.2,6.92-.95,10.71-.07.22-.3.34-.52.27-.02,0-.04-.01-.06-.02-13.44-6.57-27.32-9.57-32.69-10.32-8.02-3.9-16.79-6.48-23.91-8.43-.13-.04-.21-.17-.17-.3.01-.05.04-.09.08-.12C233.43,2.08,242.13.09,242.13.09c-15.4-.62-28.66,2.17-39.74,6.43-16.56-1.33-27.11,1.55-27.11,1.55,0,0,4.57,5.47,6.35,8.52.21.37.1.84-.25,1.08-10.42,7.22-17.89,15.15-20.84,18.45-3.28.44-8.97,1.23-13.93,2.45-.13.03-.27-.05-.3-.18-.01-.05,0-.11.01-.16,4.97-11.84,10.39-18.39,10.39-18.39,0,0-31.96,22.68-38.02,63.44,0,0,2.63-7.22,11.53-18.18.09-.11.25-.12.35-.03.03.02.05.05.07.09,2.52,5.58,5.4,10.53,6.85,12.81-4.9,7.87-8.27,16.46-10.35,23.49-.07.25-.26.44-.5.53-7.4,2.81-9.29,5.49-9.29,5.49,1.15,3.93,3.41,7.76,6.27,11.37.25.31.37.7.36,1.1-.79,17.39,4.83,28.84,4.83,28.84,1.27-6.07,3.75-11.98,6.89-17.51.11-.2.37-.27.56-.15.02.01.04.02.05.04,7.31,5.8,14.87,10.87,17.88,12.67,1.55,3.95,5.98,14.21,11.91,24.73.11.2.04.45-.15.56-.02.01-.04.02-.06.03-7.1,2.58-14.38,3.75-21.05,2.13,0,0,8.05,10.02,32.88,14.29,6.89,8.13,15.27,14.87,25.06,17.21,0,0-2.87-3.15-3.58-14.9-.01-.23.16-.42.38-.44.01,0,.02,0,.03,0,6.13.09,14.45.23,22.06-.33,2.7,2.12,8.59,6.79,14.33,9.76.29.15.3.55.03.72-10.1,6.1-16.81,6.63-16.81,6.63,45.73.97,73.18-28.82,73.18-28.82-7.53,4.95-16.23,8.03-24.89,9.86-.22.05-.44-.09-.49-.31-.01-.06-.01-.12,0-.17,1.61-7.77,1.16-15.28,1.04-17.93,10.85-2.69,20.31-7.53,27.32-12.48.14-.1.33-.1.47,0,2.92,2.03,5.41,4.3,7.9,8.09,0,0,4.74-6.7,6.38-22.24,11.75-15.32,13.49-30.99,13.49-30.99-2.95,4.6-7.4,7.92-12.61,10.3M220.5,270.73c-19.61,0-37.41,8.76-48.26,21.7l3.44,4.24c9.86-12.24,26.63-20.66,44.82-20.66s34.96,8.42,44.82,20.66l3.44-4.24c-10.86-12.95-28.65-21.7-48.26-21.7M174.62,273.48c-1.29,1.05-2.79,1.56-4.11,1.4-1.68-.19-2.7-.88-4.37-2.93l-9.62-11.8-5.19,4.21,10.48,12.86c2.23,2.72,4.76,4.18,7.76,4.45.35.03.7.05,1.05.05,2.9.02,5.59-.99,8.2-3.1,2.91-2.37,4.5-5.12,4.88-8.41.34-2.98-.57-5.76-2.79-8.49l-10.47-12.86-5.19,4.21,9.61,11.81h0c1.68,2.05,2.14,3.19,1.98,4.87-.12,1.32-.93,2.68-2.22,3.73M210.09,236.31l-16.8,3.4c-.77.15-1.37.54-1.75,1.11-.38.57-.5,1.28-.34,2.04l3.35,16.46c.54,2.68,1.75,4.61,3.58,5.73,1.21.74,2.66,1.12,4.33,1.11.85,0,1.76-.1,2.72-.29l10.5-2.13-1.26-6.21-10.21,2.07c-2.09.42-2.77.19-3.25-2.15l-.36-1.77,11.82-2.39-1.25-6.14-11.82,2.39-.9-4.41,12.91-2.62-1.26-6.21ZM242.76,245.29l10.07,2.6,1.59-6.13-10.35-2.68c-5.67-1.47-9.56.65-10.94,5.97l-4.23,16.28c-.2.76-.12,1.46.23,2.05.35.59.93,1,1.69,1.2l3.84.99,2.72-10.53,11.65,3.01,1.57-6.05-11.65-3.01.45-1.74c.6-2.31,1.29-2.5,3.35-1.97M294.99,260.16l3.55-4.38c-1.78-1.77-3.61-3.48-5.52-5.12-19.89-17.13-45.65-26.56-72.54-26.56s-52.65,9.43-72.54,26.56c-1.9,1.64-3.74,3.35-5.52,5.12l3.55,4.38c1.81-1.83,3.69-3.58,5.63-5.26,18.87-16.25,43.33-25.2,68.87-25.2s50,8.95,68.87,25.2c1.95,1.68,3.82,3.43,5.63,5.26M267.86,281.89l1.15-3.97-4.96-3.7,3.99-2.86,2.31,1.73,2.63-8.84-15.24,9.84-6.25-3.53,23.91-15.44c.92-.6,2.18-1.12,3.78.1l1.02.79c1.61,1.24,1.38,2.66,1.07,3.61l-7.94,27.26-5.48-5ZM155.33,410.97h-17.63v-13.51h10.51l4.3,3.66h.14v-13.8h-.14l-4.3,3.66h-10.51v-11.76h17l4.94,5.28h.14l-.56-11.69h-36.26v.14l3.32,4.01v36.32l-3.32,4.01v.14h37.81l.92-13.44h-.14l-6.21,6.97ZM161.99,321.15l12.49,31.81h6.98l11.57-32.16,1.97,28.01-4.37,4.01v.14h18.97v-.14l-3.66-4.01-2.68-36.32,2.89-4.01v-.14h-15.8l-10.72,29.77-11.57-29.77h-16.01v.14l3.25,4.01-1.91,36.32-3.88,4.01v.14h15.59v-.14l-3.88-4.01.77-27.66ZM109.49,410.9h-15.3v-33.92l4.16-4.01v-.14h-18.91v.14l3.32,4.01v36.32l-3.32,3.94v.21h35.48l1.7-14h-.14l-6.98,7.46ZM75.32,352.82v.14h17.99v-.14l-3.32-4.01v-36.32l3.32-4.01v-.14h-17.99v.14l3.25,4.01v13.51h-16.01v-13.51l3.25-4.01v-.14h-17.99v.14l3.32,4.01v36.32l-3.32,4.01v.14h17.99v-.14l-3.24-4.01v-15.69h16.01v15.69l-3.25,4.01ZM356.26,410.97h-17.64v-13.51h10.51l4.3,3.66h.14v-13.8h-.14l-4.3,3.66h-10.51v-11.76h17l4.94,5.28h.14l-.56-11.69h-36.26v.14l3.32,4.01v36.32l-3.32,4.01v.14h37.81l.92-13.44h-.14l-6.2,6.97ZM194.38,399.64l-5.29-17.73-6.21,17.73h11.5ZM210.18,413.29l3.67,4.01v.14h-19.11v-.14l3.67-4.01-2.04-6.97h-15.8l-2.4,6.97,3.46,4.01v.14h-14.95v-.14l3.53-4.01,13.75-36.32-2.61-4.01v-.14h15.16l13.68,40.47ZM26.94,347.05c-9.17,0-15.03-9.29-15.03-17.32,0-9.85,5.36-16.26,13.05-16.26,2.05,0,4.02.21,5.79.7l6.91,8.52h.14l-.49-14.08c-1.98-.77-6.28-1.83-11.57-1.83C9.38,306.79,0,317.92,0,330.72s9.03,23.79,24.55,23.79c4.16,0,10.3-1.4,14.53-4.57l.63-7.39h-.14c-3.6,2.81-8.75,4.51-12.63,4.51M283.79,352.82l-3.24-4.01v-36.32l3.24-4.01v-.14h-17.99v.14l3.32,4.01v36.32l-3.32,4.01v.14h17.99v-.14ZM244.33,396.54l4.44,4.02v8.38c-1.41,1.62-3.88,2.95-7.19,2.95-7.9,0-12.06-9.64-12.06-17.74,0-8.8,4.45-16.19,13.61-16.19,2.54,0,5.22.21,7.4.98l7.06,7.6h.14l-.42-12.24c-4.09-2.11-9.03-3.02-14.04-3.02-15.02,0-25.68,9.22-25.68,24.42,0,12.74,8.18,23.3,20.95,23.3,5.57,0,10.65-1.27,15.38-4.71l5.57,4.71h.14v-18.44l3.52-4.02v-.14h-18.83v.14ZM232.66,331.29c1.41.42,3.03.63,4.73.63,6.21,0,8.89-3.38,8.89-8.38,0-5.91-3.46-8.73-9.88-8.73h-3.74v16.47ZM221.23,348.81v-36.32l-3.32-4.01v-.14h21.16c12.84,0,18.69,5.84,18.69,14.71s-6.98,14.92-16.51,14.92c-3.1,0-6.28-.21-8.61-.77v11.61l4.65,4.01v.14h-19.4v-.14l3.32-4.01ZM327.8,333.89c0-7.74-2.89-20.06-12.77-20.06-7.9,0-10.16,7.88-10.16,13.23,0,7.81,3.25,20.41,12.77,20.41,6.84,0,10.16-6.48,10.16-13.58M315.95,354.51c-13.97,0-22.99-11.47-22.99-24.49s10.37-23.23,23.35-23.23c14.32,0,23.49,11.19,23.49,24,0,14.64-11.07,23.72-23.84,23.72M301.03,372.97l3.67,4.01v25.41c0,7.32-3.6,9.15-9.45,9.15s-9.52-1.69-9.52-9.15v-25.41l3.67-4.01v-.14h-18.41v.14l3.32,4.01v25.41c0,12.17,6.21,16.61,19.47,16.61,12.06,0,18.2-4.15,18.2-16.26v-25.76l3.24-4.01v-.14h-14.18v.14ZM386.23,378.45c0-3.17-2.41-5.57-5.45-5.57s-5.48,2.4-5.48,5.57,2.41,5.62,5.48,5.62,5.45-2.38,5.45-5.62M387.58,378.45c0,3.89-3.14,6.73-6.81,6.73s-6.83-2.84-6.83-6.73,3.14-6.69,6.83-6.69,6.81,2.84,6.81,6.69M380.76,377.99c.99,0,1.89-.05,1.89-1.25,0-.96-.87-1.14-1.7-1.14h-1.6v2.39h1.42ZM381.86,378.93l2.19,3.41h-1.31l-2.04-3.36h-1.36v3.36h-1.17v-7.74h2.95c1.83,0,2.74.67,2.74,2.2,0,1.39-.87,1.98-2.01,2.13M378.93,308.48l4.3,4.01v23.65l-18.13-27.8h-16.29v.14l3.32,4.01v36.32l-3.32,4.01v.14h14.88v-.14l-4.37-4.01v-29.56l22.64,33.72h8.47v-40.47l3.31-4.01v-.14h-14.81v.14ZM424.42,325.52c-8.11-2.25-10.58-3.24-10.58-6.97,0-4.29,5.57-5.14,9.1-5.14,2.96,0,5.71.35,8.18,1.13l6.77,7.32h.14l-.56-12.6c-4.23-1.62-8.68-2.46-13.75-2.46-10.65,0-20.88,3.66-20.88,14.22,0,6.83,4.73,10.91,14.95,13.72,7.9,2.18,11.78,3.59,11.78,7.6,0,4.64-5.93,5.63-9.88,5.63-3.31,0-6.28-.49-8.82-1.27l-6.84-8.45h-.14l.49,13.37c4.66,2.11,10.3,2.89,15.59,2.89,11.43,0,21.02-4.78,21.02-14.42,0-9.08-6.28-11.68-16.58-14.57M114.74,335.16h11.5l-5.29-17.74-6.21,17.74ZM113.47,352.97h-14.95v-.14l3.53-4.01,13.75-36.32-2.61-4.01v-.14h15.16l13.68,40.47,3.67,4.01v.14h-19.11v-.14l3.67-4.01-2.05-6.97h-15.8l-2.4,6.97,3.46,4.01v.14Z"/>
</svg>