<?xml version="1.0" encoding="UTF-8"?>
<svg id="svg1" xmlns="http://www.w3.org/2000/svg" version="1.1" xmlns:inkscape="http://www.inkscape.org/namespaces/inkscape" xmlns:sodipodi="http://sodipodi.sourceforge.net/DTD/sodipodi-0.dtd" xmlns:svg="http://www.w3.org/2000/svg" viewBox="0 0 204.15 289.47">
  <!-- Generator: Adobe Illustrator 29.8.1, SVG Export Plug-In . SVG Version: 2.1.1 Build 2)  -->
  <defs>
    <style>
      .st0, .st1 {
        fill: #fff;
      }

      .st2 {
        fill: #dc1f2d;
      }

      .st3 {
        fill: #222f62;
      }

      .st1 {
        stroke: #b1782b;
        stroke-miterlimit: 86.95;
        stroke-width: 2.92px;
      }

      .st4 {
        fill: #b1782b;
      }
    </style>
  </defs>
  <g>
    <path id="path4675" class="st1" d="M102.29,1.59s-23.39-.7-52.44,1.16C20.81,4.59,1.46,8.67,1.46,8.67l.29,142.44S-.06,191.59,14.03,219.29c21.82,42.9,88.41,68.62,88.41,68.62,0,0,67.02-25.28,87.68-69.05,11.73-24.85,12.56-67.47,12.56-67.47V8.67s-18.04-3.52-44.35-5.49c-26.3-1.97-56.05-1.59-56.05-1.59Z"/>
    <path class="st4" d="M94.64,64.75l1.17,3.25,3.48.12-2.85,2.04,1.08,3.42-2.82-2.28-2.92,2.28,1.17-3.52-2.94-1.94,3.64-.05,1-3.33ZM77.46,65.29l1.17,3.25,3.48.12-2.85,2.04,1.08,3.42-2.82-2.28-2.92,2.28,1.17-3.52-2.94-1.94,3.64-.05,1-3.33ZM60.35,66.32l1.17,3.25,3.48.12-2.85,2.04,1.08,3.42-2.82-2.28-2.92,2.28,1.17-3.52-2.94-1.94,3.64-.05,1-3.33ZM43.28,67.95l1.17,3.25,3.48.12-2.85,2.04,1.08,3.42-2.82-2.28-2.92,2.28,1.17-3.52-2.94-1.94,3.64-.05,1-3.33ZM26.22,70.01l1.17,3.25,3.48.12-2.85,2.04,1.08,3.42-2.82-2.28-2.92,2.28,1.17-3.52-2.94-1.94,3.64-.05,1-3.33ZM111.89,64.75l1.17,3.25,3.48.12-2.85,2.04,1.08,3.42-2.82-2.28-2.92,2.28,1.17-3.52-2.94-1.94,3.64-.05,1-3.33ZM128.96,65.4l1.17,3.25,3.48.12-2.85,2.04,1.08,3.42-2.82-2.28-2.92,2.28,1.17-3.52-2.94-1.94,3.64-.05,1-3.33ZM146.13,66.54l1.17,3.25,3.48.12-2.85,2.04,1.08,3.42-2.82-2.28-2.92,2.28,1.17-3.52-2.94-1.94,3.64-.05,1-3.33ZM163.25,68.16l1.17,3.25,3.48.12-2.85,2.04,1.08,3.42-2.82-2.28-2.92,2.28,1.17-3.52-2.94-1.94,3.64-.05,1-3.33ZM180.2,70.28l1.17,3.25,3.48.12-2.85,2.04,1.08,3.42-2.82-2.28-2.92,2.28,1.17-3.52-2.94-1.94,3.64-.05,1-3.33Z"/>
    <path class="st3" d="M69.94,19.25s-11.97.43-20.31,1.19c-8.35.76-16.36,1.51-16.36,1.51,0,0-6.17.43-9.26,4.56-3.09,4.11-2.6,7.8-2.6,7.8l-.11,24.54s-.22,1.19.98,1.14c1.19-.05,5.82-.7,5.82-.7,0,0,.84,0,.95-1.36.11-1.35.11-11.94.11-11.94,0,0-.03-1.96,2.19-2.17,1.84-.17,15.74-1.59,15.74-1.59,0,0,1.14-.22,1.19-1.14s.05-4.5.05-4.5c0,0,.05-.92-1.24-.82-1.51.13-16.2,1.57-16.2,1.57,0,0-1.63.1-1.79-1.41-.16-1.52.06-5.42.06-5.42,0,0,.32-1.79,2.17-1.95,1.84-.17,16.2-1.63,20.69-1.9,4.5-.28,17.93-1.14,17.93-1.14,0,0,1.14-.27,1.19-1.3.05-1.03.11-3.9.11-3.9,0,0-.43-1.14-1.3-1.09M88.3,18.11s-5.27,0-8.16,4.11c-2.36,3.37-2.36,4.29-2.46,7.26-.11,2.98-.11,14.52-.11,14.52,0,0-.1,3.95,2.66,6.99,1.3,1.43,4.17,3.79,7.75,3.84,3.57.05,15.16-.05,18.69-.05s18.42.27,18.42.27c0,0,1.36-.05,1.36-1.03v-4.23s.1-1.19-1.14-1.19-18.31-.28-21.35-.38c-3.03-.11-14.68.17-14.68.17,0,0-2.43.16-2.49-1.96-.06-2.11,0-20.09,0-20.09,0,0,0-1.79,2.05-1.9,2.06-.11,13.55-.22,17.23-.11,3.69.11,19.07.38,19.07.38,0,0,1.14.11,1.25-1.14.1-1.24.05-4.11.05-4.11,0,0,.17-.97-1.03-1.14-1.19-.17-19.13-.54-22.05-.54s-15.06.32-15.06.32M184.21,23.83s-15.09-1.97-21.96-2.57c-6.89-.59-15.33-1.03-15.33-1.03,0,0-5.85-.11-8.56,2.82-2.7,2.92-2.65,5.52-2.76,6.66-.11,1.14-.11,25.08-.11,25.08,0,0-.1,1.25.7,1.36.82.11,6.12.49,6.12.49,0,0,1.09,0,1.19-1.19.11-1.19,0-11.54,0-11.54,0,0-.08-2.36,2.3-2.27,1.36.04,15.63,1.19,15.63,1.19,0,0,1.25.22,1.41-.92.17-1.14.17-4.07.17-4.07,0,0,.27-1.13-1.24-1.35-1.52-.22-15.88-1.25-15.88-1.25,0,0-2.24-.16-2.3-1.57-.05-1.41.03-5.63.03-5.63,0,0,.64-1.68,2.32-1.57,1.69.11,12.14.87,17.56,1.36,5.42.49,20.31,2.43,20.31,2.43,0,0,1.47.38,1.52-.81s.1-4.28.1-4.28c0,0-.13-1.14-1.22-1.33M188.03,91.19s-3.2-2.01-10.78-3.63c-7.58-1.63-17.82-3.63-27.09-4.23-9.26-.6-17.93-.87-28.87-.17-10.95.7-20.86,2.38-27.47,4.01-6.61,1.63-9.91,3.03-9.91,3.03,0,0-4.44-3.74-7.91-5.58s-6.66-3.47-11.64-4.01-9.32,0-11.87.87c-2.55.86-3.09,1.36-3.09,1.36,0,0,2.6,2.27,3.63,4.98,1.03,2.7,1.95,6.93,1.46,11.54-.49,4.6-2.44,12.78-2.44,12.78,0,0-4.01,4.44-6.33,10.24-2.33,5.79-3.15,9.8-3.2,11.1-.05,1.3-.05,2.55-.05,2.55,0,0-11.13,4.07-16.42,6.71-8.67,4.33-15.11,9.04-15.11,9.04,0,0,9.91-3.03,13.11-3.79,3.19-.76,9.63-2.43,12.51-2.92,2.87-.49,6.23-1.14,6.23-1.14,0,0,2.23,6.02,5.63,10.83,3.42,4.83,6.44,8.34,9.26,10.56,2.82,2.22,4.29,3.42,4.29,3.42,0,0-3.03-6.13-3.85-11-.81-4.88-.1-11,1.46-14.96,1.57-3.96,6.02-11.97,13.23-17.55,7.2-5.58,17.06-10.9,24.27-13.7,7.2-2.82,20.21-7.04,27.52-7.96,7.31-.92,15.49-1.47,21.56-.55,6.07.92,11.37,2.28,13.76,4.07,2.38,1.78,3.19,3.46,3.19,3.46,0,0,10.18-4.33,15.17-6.83,4.98-2.49,8.74-5.17,10.5-6.93,1.68-1.68,2.44-2.38,1.41-3.79-.8-1.1-2.17-1.84-2.17-1.84M182.94,103.49s-4.98,2.6-8.13,3.9c-3.14,1.3-18.25,7.85-24.86,10.62-6.61,2.76-21.13,8.5-21.13,8.5l.11,17.17,32.17-1.74s-11.32,4.28-16.74,6.56c-5.42,2.28-15.5,6.99-15.5,6.99l-.05,96.92s10.56-6.99,15.28-10.78c4.71-3.79,14.09-11.6,17.83-15.93s9.48-11.97,13.22-21.89c3.74-9.91,5.42-17.88,6.28-28.93.87-11.05,1.52-23.56,1.57-33.42.05-9.86-.05-37.97-.05-37.97M149.28,144.53s-11.52.51-13.65.65c-2.13.13-7.87.57-7.87.57,0,0-.33,2.57-1.19,5.17-.87,2.6-2.1,4.88-2.1,4.88,0,0,7.87-4.18,11.12-5.6,3.24-1.42,13.69-5.67,13.69-5.67M120.89,159.63s3.64-5.52,5.02-10.26c1.37-4.73,1.12-8.91-.17-11.77-1.3-2.85-3.87-5.34-6.15-6.46-2.27-1.12-3.68-1.73-3.68-1.73l25.03-9.57s5.17-2.06,5.52-2.2c.37-.15,1.77-1.23.37-2.28-1.41-1.05-4.37-1.41-6.79-1.52-2.42-.1-8.77.04-14.7.83-5.92.79-13.18,2.82-18.63,4.51-5.45,1.7-12.43,4.34-17.41,6.54-4.98,2.2-7.84,3.83-13.65,8.63-5.82,4.8-8.2,9.21-9.72,12.93-1.51,3.71-1.83,7.76-1.08,11.98.76,4.23,2.63,8.42,4.16,10.91,1.51,2.49,3.71,5.63,4.69,6.36.98.72,2.03,1.44,2.03,1.44,0,0,0,6.71,2.06,16.39,2.06,9.69,4.11,13.87,6.43,19.29,2.31,5.42,6.76,12.21,6.76,12.21,0,0-1.12-8.45-1.12-12.35s.62-12.39,2.03-17.41c1.41-5.02,4.73-13.97,8.52-19.36,3.79-5.38,10.15-11.49,12.82-13.36,2.68-1.88,6.39-4.51,6.39-4.51,0,0-.68-2.38-2.42-4.44-1.73-2.06-4.11-3.76-5.3-4.44-1.19-.69-1.84-1.04-1.84-1.04,0,0-6,1.58-10.3,3.29-4.3,1.7-8.89,4.04-11.3,5.52-2.42,1.48-6.64,4.66-6.64,4.66,0,0-2.56-4.15-2.71-6.86-.25-4.37,1.44-7.55,2.38-9.25.92-1.65,3.37-3.83,3.37-3.83,0,0,6.75.5,10.94,1.23,4.19.72,10.51,2.13,13.73,3.62,3.21,1.48,5.56,2.82,7.69,4.87,2.13,2.06,2.85,3.72,3.18,4.7.32.97.54,2.75.54,2.75M41.44,146.34s-7.48,1.19-11.22,2.17c-3.74.97-8.72,2.23-8.72,2.23,0,0,.27,13,1.63,27.19,1.36,14.19,4.39,22.81,7.43,29.36,3.03,6.56,8.39,16.47,18.63,25.03,10.23,8.56,16.3,13.33,19.61,15.6,3.3,2.28,6.56,4.44,6.56,4.44v-59.75s-1.03-5.3-1.24-8.29c-.22-2.97-.38-5.3-.38-5.3,0,0-11.86-7.59-15.23-10.35-3.36-2.77-8.61-7.96-11.7-12.73-3.09-4.77-5.37-9.59-5.37-9.59M51.57,89.78s-11.54.49-16.74.97c-5.2.49-13.43,1.36-13.43,1.36v51.03s5.85-3.2,10.35-5.04,8.77-3.52,8.77-3.52c0,0,.92-7.04,2.71-11.27,1.78-4.23,3.9-7.69,4.65-8.83.77-1.14,2.44-3.42,2.44-3.42,0,0,1.63-6.61,2.05-10.29.43-3.69.17-7.21-.05-8.4-.22-1.19-.76-2.6-.76-2.6"/>
    <path class="st2" d="M105.74,148.02s-4.55-1.46-8.07-2.06c-3.52-.59-7.04-.97-7.04-.97v9.32s4.5-2.55,7.8-3.74c3.3-1.19,7.31-2.55,7.31-2.55M113.54,165.79s-9.75,8.02-13.7,15.44c-3.96,7.42-6.17,14.24-7.43,23.02-1.24,8.78,0,17.72.6,21.4.59,3.69,1.73,9.59,1.73,9.59l-4.17-6.34.11,32.18,11.49,5.37,11.37-5.26v-95.4ZM161.22,111.29s-1.19-2.33-4.44-3.69c-3.25-1.35-9.21-2.82-15.06-3.09-5.85-.27-14.73.22-22.1,1.9-7.36,1.68-19.56,5.85-26.05,8.72-6.5,2.88-14.74,7.31-19.99,11.97-5.26,4.66-8.18,7.86-11.27,14.47s-2.82,10.4-2.82,13.54,2.17,8.62,3.41,11c1.25,2.38,4.88,6.83,4.88,6.83,0,0-3.84-8.35-4.6-12.19-.77-3.84-.82-9.81.59-13.05,1.41-3.25,3.74-8.67,8.4-12.73,4.66-4.07,10.94-9.16,19.56-12.46,8.61-3.3,16.96-6.18,22.54-7.53,5.57-1.36,15.7-3.3,22.43-3.2,6.71.11,9.96.87,11.21,1.9,1.25,1.03,1.57,2.71,1.57,2.71l11.7-4.93.05-.17Z"/>
  </g>
  <path class="st0" d="M133.37,93.68l-13.16-.43s4.44,3.36,6.34,3.74c1.9.38,3.69.32,5.03-.81,1.36-1.14,1.79-2.5,1.79-2.5M144.64,89.84s-6.93-1.57-13.87-1.9c-6.93-.32-20.09.49-26.22,1.46-6.12.97-21.29,4.66-21.29,4.66,0,0-2.97-3.36-8.02-5.8-5.03-2.43-11.37-3.68-13.81-3.84-2.44-.17-5.42-.22-5.42-.22,0,0,4.5.32,8.44,1.84,3.96,1.51,6.02,2.38,8.56,5.1,2.55,2.7,3.3,6.06,3.3,6.06,0,0-8.45,4.77-12.63,8.83s-7.9,8.4-9.53,10.78c-1.63,2.38-3.85,6.5-3.85,6.5,0,0,5.42-7.96,10.95-12.46,5.52-4.5,12.08-9.43,20.31-12.56,8.23-3.14,16.15-6.07,25.89-7.31,9.76-1.24,19.18-2.01,26.06-1.74,6.88.28,11.1.6,11.1.6"/>
</svg>