<?xml version="1.0" encoding="UTF-8"?>
<svg id="Layer_1" xmlns="http://www.w3.org/2000/svg" version="1.1" viewBox="0 0 115.21 236.29">
  <!-- Generator: Adobe Illustrator 29.8.1, SVG Export Plug-In . SVG Version: 2.1.1 Build 2)  -->
  <defs>
    <style>
      .st0 {
        fill: #001c58;
      }

      .st1 {
        fill: #fff;
      }
    </style>
  </defs>
  <g>
    <path id="path8068" class="st1" d="M44.07,0c-11.66,0-14.42,5.98-14.42,5.98,0,0,13.45-.97,13.45,12.31,0,5.98-3.25,10.03-6.7,14.32-4,4.98-8.53,10.63-8.53,20.1,0,15.68,10.07,23.03,18.96,29.52,7.74,5.65,15.05,10.99,15.05,21.05s-4.43,17.94-6.46,19.97c-3.39,3.39-6.45,4.01-8.91,4.51-2.52.51-4.91,1-5.41,4.62-9.33,5.61-14.99,15.59-14.99,26.42,0,.42,0,.85.03,1.27.34,8.23,3.86,15.84,9.91,21.42,6.06,5.58,13.93,8.47,22.16,8.14,8.23-.34,15.84-3.86,21.42-9.91,5.58-6.06,8.47-13.93,8.14-22.16-.51-12.57-8.48-23.46-20.31-27.75l.05.02s-.16-.07-.16-.07c0,0-.28-.1-.28-.1-1.5-.52-3.19-1.1-3.19-4.95s1.69-4.04,5.06-4.66c2-.37,4.45-.82,6.86-2.28,4.28-2.61,5.08-5.76,4.3-6.54-1.06-1.06-2.23,1.17-6.53,2.46-1.55.47-3.11.74-4.17.74-.88,0-1.53-.07-2.01-.16,2.26-4.24,4.79-7.7,4.82-7.74l.55-.75-.66-.66c-.87-.87-1.38-2.69-1.38-5.13,0-3.01.77-6.96,2.54-11.25,2.1-5.07,10.44-21.62,29.57-21.62h1.09v-1.09c0-6.84-.62-13.13-1.86-18.69l-.24-1.08s-1.86.53-3.4.87c-.18.04-1.63.4-1.7.09-.06-.27,1.06-.83,1.45-1.02,1.45-.72,3.26-1.48,3.26-1.48l-.25-.87c-1.36-4.76-2.74-7.04-2.8-7.13l-.44-.73-.81.26c-15.93,5.02-19.34,15.59-21.37,21.9-.99,3.07-1.6,4.8-2.71,4.8-3.29,0-6.01-2.72-6.9-3.61-9.93-9.93-9.17-17.09-8.02-27.93.41-3.83.87-8.16.87-13.11,0-12.48-4.74-18.29-14.92-18.29"/>
    <path class="st0" d="M32.43,159.24c-.66-.16-1.22-.57-1.66-1.18-2.22,3.42-3.15,6.48-2.34,9.22,3.41,11.52,13.57,20.02,25.74,21.15-11.63-3.53-20.24-15.65-21.74-29.19M30.05,152.43c-.73-.52-1.36-1.01-1.81-1.44-.78,2.86-1.14,5.9-1.01,9.02.02.63.07,1.26.13,1.87.45-1.85,1.34-3.77,2.61-5.74-.25-1.15-.21-2.46.08-3.72ZM30.62,150.67c.31-.7.69-1.34,1.15-1.88.37-.43.76-.78,1.18-1.04,1.11-5.16,3.42-9.75,6.8-13.22-5.04,3.59-8.91,8.7-10.94,14.63.27.37.99.93,1.82,1.51ZM74.26,177.15c-2.52-.28-5.89-.95-7.36-1.45-1.64-.57-3.1-1.94-3.91-3.67-.33-.72-.63-1.67-.68-2.82-.03-.69.04-1.45.24-2.28-9.23-2.82-19.01-6.73-25.82-10.36-.24.44-.51.85-.82,1.21-.51.61-1.09,1.05-1.68,1.3.64,5.66,2.61,11.21,5.74,16.05,4.15,6.41,9.81,10.81,15.93,12.2,2.17.49,5,1.1,7.53.54,9.4-2.08,17.05-8.58,20.8-17.13-.44.08-.93.12-1.46.14-2.14,6.27-6.65,6.49-8.51,6.29ZM86.7,157.59c-.13-3.3-.8-6.46-1.91-9.38-1.37-3.59-5.95-6.13-11.98-7.5-11.15-2.52-25.81,1.64-35.13,9.49.36,1.43.25,3.14-.23,4.69,6.72,3.61,16.49,7.52,25.7,10.33,2.17-4.98,6.32-5.93,9.56-5.12,2.32.58,3.81.88,4.9,1.1l1.2.25c1.54.36,2.89,1.38,3.7,2.81.57,1.01,1.1,2.6.74,4.79,1.13-.07,1.68-.26,1.81-.41,1.21-3.45,1.8-7.18,1.64-11.05ZM81.41,169.05c.37-1.84-.03-3.12-.48-3.9-.56-.99-1.49-1.69-2.54-1.94l-1.15-.24c-1.04-.21-2.62-.53-4.98-1.12-3.16-.79-5.87.66-7.37,3.89,1.54.45,3.06.86,4.54,1.24.24-1.15.29-1.95.29-1.96.03-.5.46-.88.96-.85.5.03.88.46.85.96,0,.06-.06.98-.34,2.28.29.07.59.14.87.2.3.07.59.13.87.19.26-1.27.42-2.35.43-2.37.07-.49.54-.83,1.03-.76.5.07.83.54.76,1.03-.01.09-.18,1.17-.45,2.47.61.12,1.18.22,1.73.31.2-1.1.25-1.97.25-1.99.02-.5.45-.88.95-.86.5.02.89.45.86.95,0,.07-.05.99-.27,2.17,1.25.17,2.31.26,3.18.3ZM64.64,171.26c.71,1.53,1.94,2.41,2.86,2.72,1.19.41,4.34,1.08,6.96,1.36,2.87.32,5.12-1.28,6.4-4.51-.96-.06-1.99-.17-3.06-.32-.2.65-.45,1.3-.78,1.87-.25.43-.8.58-1.23.34-.43-.25-.59-.8-.34-1.24.22-.38.4-.81.55-1.26-.56-.1-1.13-.2-1.69-.31-.19.75-.41,1.46-.64,2-.2.46-.73.67-1.19.47-.46-.2-.67-.73-.47-1.19.19-.43.37-1.01.53-1.64-.29-.06-.58-.13-.87-.19-.3-.07-.62-.14-.93-.22-.16.52-.35,1.07-.59,1.62-.19.46-.73.68-1.19.48-.46-.19-.68-.73-.48-1.18.19-.46.36-.91.49-1.35-1.52-.39-3.09-.82-4.68-1.28-.38,1.67-.05,2.97.34,3.82ZM34.83,148.71c-.4-.07-1.2-.07-1.99.8-1.26,1.37-1.85,3.22-1.76,5.49h0c.03.58.11.91.27,1.38.29.83,1,1.38,1.51,1.47.61.11,1.3-.25,1.95-1.01,1.41-1.67,2.02-4.74,1.33-6.7-.29-.82-.75-1.32-1.31-1.42ZM62.97,103.27c0,10.07-4.29,18.25-6.77,20.73-7.69,7.69-14.03,2.09-14.1,9.8-3.49,3.16-6,7.96-7.23,13.45.08,0,.15.02.23.03.72.13,1.34.54,1.82,1.2,9.76-7.96,24.8-12.14,36.29-9.54,3.65.83,6.75,2.17,9.1,4.24-3.53-5.71-8.92-10.11-15.3-12.4-1.51-.54-4.2-1.16-4.2-6.08,0-9.17,10.03-2.04,16.64-12.02.32-.49-.14-.92-.53-.54-2,2-6.91,3.37-9.5,3.37s-3.58-.59-3.58-.59c2.45-4.88,5.51-9.04,5.51-9.04-6.13-6.13,4.19-39.85,31.5-39.85,0-7.82-.83-13.92-1.83-18.46-.65.16-5.79,1.37-6.03.29-.21-.96,3.79-3.04,5.17-3.72-1.34-4.68-2.68-6.87-2.68-6.87-23.41,7.38-18.71,26.76-24.41,26.76-3.71,0-6.63-2.89-7.67-3.93-13.98-13.98-7.47-23.23-7.47-41.81,0-12.52-4.86-17.2-13.84-17.2s-12.18,3.89-12.18,3.89c0,0,12.3.4,12.3,13.32s-15.23,17.26-15.23,34.41c0,28.56,34.01,28.02,34.01,50.56M46.75,18.29c0-1.66-.18-3.16-.5-4.51,0,0,2.68-.14,2.68-3.4,0-2.69-1.79-4.52-2.27-4.52-.39,0-.48.41-1.32.41-2.04,0-2.19-2.61-2.19-2.61.3-.01.61-.01.93-.01,5.85,0,11.27,1.77,11.27,14.64,0,4.76-.45,8.99-.85,12.73-.39,3.69-.76,7.12-.65,10.47,0,0-10.19-1.2-10.19-8.87,0-4.98,3.1-6.19,3.1-14.33ZM32.43,159.24c-.66-.16-1.22-.57-1.66-1.18-2.22,3.42-3.15,6.48-2.34,9.22,3.41,11.52,13.57,20.02,25.74,21.15-11.63-3.53-20.24-15.65-21.74-29.19ZM30.05,152.43c-.73-.52-1.36-1.01-1.81-1.44-.78,2.86-1.14,5.9-1.01,9.02.02.63.07,1.26.13,1.87.45-1.85,1.34-3.77,2.61-5.74-.25-1.15-.21-2.46.08-3.72ZM30.62,150.67c.31-.7.69-1.34,1.15-1.88.37-.43.76-.78,1.18-1.04,1.11-5.16,3.42-9.75,6.8-13.22-5.04,3.59-8.91,8.7-10.94,14.63.27.37.99.93,1.82,1.51ZM74.26,177.15c-2.52-.28-5.89-.95-7.36-1.45-1.64-.57-3.1-1.94-3.91-3.67-.33-.72-.63-1.67-.68-2.82-.03-.69.04-1.45.24-2.28-9.23-2.82-19.01-6.73-25.82-10.36-.24.44-.51.85-.82,1.21-.51.61-1.09,1.05-1.68,1.3.64,5.66,2.61,11.21,5.74,16.05,4.15,6.41,9.81,10.81,15.93,12.2,2.17.49,5,1.1,7.53.54,9.4-2.08,17.05-8.58,20.8-17.13-.44.08-.93.12-1.46.14-2.14,6.27-6.65,6.49-8.51,6.29ZM84.78,148.21c-1.37-3.59-5.95-6.13-11.98-7.5-11.15-2.52-25.81,1.64-35.13,9.49.36,1.43.25,3.14-.23,4.69,6.72,3.61,16.49,7.52,25.7,10.33,2.17-4.98,6.32-5.93,9.56-5.12,2.32.58,3.81.88,4.9,1.1l1.2.25c1.54.36,2.89,1.38,3.7,2.81.57,1.01,1.1,2.6.74,4.79,1.13-.07,1.68-.26,1.81-.41,1.21-3.45,1.8-7.18,1.64-11.05-.13-3.3-.8-6.46-1.91-9.39ZM64.64,171.26c.71,1.53,1.94,2.41,2.86,2.72,1.19.41,4.34,1.08,6.96,1.36,2.87.32,5.12-1.28,6.4-4.51-.96-.06-1.99-.17-3.06-.32-.2.65-.45,1.3-.78,1.87-.25.43-.8.58-1.23.34-.43-.25-.59-.8-.34-1.24.22-.38.4-.81.55-1.26-.56-.1-1.13-.2-1.69-.31-.19.75-.41,1.46-.64,2-.2.46-.73.67-1.19.47-.46-.2-.67-.73-.47-1.19.19-.43.37-1.01.53-1.64-.29-.06-.58-.13-.87-.19-.3-.07-.62-.14-.93-.22-.16.52-.35,1.07-.59,1.62-.19.46-.73.68-1.19.48-.46-.19-.68-.73-.48-1.18.19-.46.36-.91.49-1.35-1.52-.39-3.09-.82-4.68-1.28-.38,1.67-.05,2.97.34,3.82ZM81.41,169.05c.37-1.84-.03-3.12-.48-3.9-.56-.99-1.49-1.69-2.54-1.94l-1.15-.24c-1.04-.21-2.62-.53-4.98-1.12-3.16-.79-5.87.66-7.37,3.89,1.54.45,3.06.86,4.54,1.24.24-1.15.29-1.95.29-1.96.03-.5.46-.88.96-.85.5.03.88.46.85.96,0,.06-.06.98-.34,2.28.29.07.59.14.87.2.3.07.59.13.87.19.26-1.27.42-2.35.43-2.37.07-.49.54-.83,1.03-.76.5.07.83.54.76,1.03-.01.09-.18,1.17-.45,2.47.61.12,1.18.22,1.73.31.2-1.1.25-1.97.25-1.99.02-.5.45-.88.95-.86.5.02.89.45.86.95,0,.07-.05.99-.27,2.17,1.25.17,2.31.26,3.18.3ZM34.83,148.71c-.4-.07-1.2-.07-1.99.8-1.26,1.37-1.85,3.22-1.76,5.49h0c.03.58.11.91.27,1.38.29.83,1,1.38,1.51,1.47.61.11,1.3-.25,1.95-1.01,1.41-1.67,2.02-4.74,1.33-6.7-.29-.82-.75-1.32-1.31-1.42Z"/>
  </g>
  <g>
    <path class="st1" d="M59.05,226.74l-.42-.24c-1.84-1.02-3.17-1.76-3.18-2.92,0-.5.14-.9.43-1.19.32-.32.8-.48,1.44-.48,1.27.02,2.27.65,3.36,2.1l.45.6.8-3.34-.24-.13c-.9-.48-2.34-1.12-4.43-1.12-2.93,0-4.98,1.45-5.33,3.67l-.22-3.63-.35-.03c-.98-.09-4.27-.39-5.46-.54l-1.43-.18c-1.41-.17-2.52-.31-3.09-.43l-.28-.06-1.33,3.01c-.69-2.24-2.33-3.8-4.64-4.41-.62-.16-1.23-.24-1.83-.24-3.25,0-5.93,2.46-6.97,6.43-1.25,4.76.61,8.66,4.62,9.71.62.16,1.24.25,1.83.25,3.25,0,5.92-2.46,6.97-6.43.46-1.76.51-3.48.13-4.96l.6-.36c.71-.42,1.19-.61,2.12-.61.39,0,.87.03,1.49.1l-1.11,8.61c-.06.36-.11.75-.17,1.15-.13.91-.26,1.86-.43,2.41-.15.49-.37.73-.37.74l-.34.48.61.1c.43.07,1.34.23,2.04.3.69.07,1.51.16,2.01.22l.66.08-.31-.59c-.35-.67-.01-3.22.1-4.05l1.16-9.02c1.86.15,2.6.3,3.35,1.17l.68.78c-.03.22-.05.45-.05.69,0,2.12,1.07,3.54,3.68,4.89,2.67,1.39,3.09,1.99,3.08,2.9-.02,1.3-1.01,2.15-2.51,2.15-1.3-.02-2.57-1.01-3.38-2.65l-.45-.9-.8,3.75.16.13c.47.4,1.91,1.6,4.75,1.64h.13c1.83,0,3.41-.58,4.46-1.64.87-.88,1.33-2.03,1.31-3.32-.01-1.38-.41-3-3.24-4.59ZM39.38,227.04c-1.1,4.18-4.22,7.03-8.37,5.94-4.15-1.09-5.46-5.1-4.36-9.29,1.11-4.2,4.24-7.02,8.37-5.94,4.12,1.08,5.47,5.08,4.37,9.29ZM47.58,221.36l-1.16,9c-.1.84-.56,3.75-.11,4.61-.5-.06-1.32-.15-2.01-.22-.72-.07-1.66-.24-2.07-.31,0,0,.26-.29.44-.87.25-.82.42-2.39.61-3.61l1.16-8.97c-2.47-.31-3.1-.13-4.19.51l1.02-2.3c.77.17,2.48.36,4.55.62,1.39.17,5.53.55,5.53.55l.14,2.3c-.91-1.06-1.86-1.15-3.92-1.31ZM56.39,235.94c-2.63-.04-4-1.12-4.53-1.56l.55-2.56c.82,1.63,2.17,2.82,3.69,2.85,1.59.02,2.84-.91,2.87-2.49.02-1.15-.61-1.84-3.27-3.22-2.54-1.31-3.49-2.62-3.49-4.58,0-2.66,2.31-4.01,5.03-4.01,2,0,3.39.61,4.27,1.08l-.56,2.35c-1.21-1.62-2.31-2.22-3.64-2.24-1.3-.02-2.23.69-2.22,2.03,0,1.46,1.62,2.25,3.78,3.46,2.49,1.39,3.05,2.79,3.06,4.29.03,2.7-2.17,4.66-5.55,4.61Z"/>
    <path class="st1" d="M74.59,222.96c-.27-.94-.91-1.81-1.77-2.38-1.01-.69-2.21-1.02-3.66-1.02-.34,0-.7.02-1.07.05-3.36.32-5.25.59-5.27.6l-.67.1.47.49c.51.53.7,2.92.78,3.82l.03.4.7,7.33c.08,1.27.11,2.22-.14,2.85l-.2.5h.54s.87-.04,1.97-.13c1.45-.12,2.22-.2,2.22-.2l.79-.08-.59-.53c-.24-.21-.58-1.06-.84-3.89l-.92-9.36c.31-.05.57-.07.59-.07.1,0,.21-.01.31-.01.69,0,1.29.2,1.79.58.67.52,1.02,1.26,1.13,2.41.1,1.12-.12,2.07-.64,2.75-.54.66-1.21.82-1.73.88l-.16.02c-.13,0-.25.07-.33.16-.14.16-.13.37-.13.4v.13c.05.46.21,1,1.1,1,.06,0,.12,0,.18,0,1.91-.09,3.37-.69,4.47-1.83.7-.73,1.19-1.81,1.27-2.82.04-.43.01-.85,0-1.07-.02-.24-.08-.69-.2-1.07ZM74.44,225.06c-.07.88-.49,1.89-1.17,2.61-1.05,1.1-2.42,1.64-4.23,1.73-.7.04-.87-.17-.91-.68v-.11s-.02-.2.13-.21l.18-.02c.54-.07,1.33-.23,1.97-1.01.61-.8.82-1.86.71-3-.11-1.19-.47-2.04-1.27-2.65-.69-.53-1.51-.7-2.34-.64,0,0-.34.03-.71.09,0,0-.22.02-.2.23l.9,9.31c.08.82.3,3.7.97,4.3,0,0-.77.08-2.21.2-1.1.09-1.96.11-1.96.11.29-.71.24-1.77.17-3l-.7-7.34c-.08-.84-.22-3.72-.91-4.43,0,0,1.84-.27,5.25-.59,1.78-.17,3.24.06,4.5.91.82.55,1.39,1.36,1.62,2.19.1.32.15.7.18,1,.03.28.04.65,0,1Z"/>
    <path class="st1" d="M27.65,216.02l.54-.39-.63-.22s-1.02-.35-1.81-.64l-2.63-.96.17.65c.18.68-.67,2.87-1.04,3.81l-.19.49-.58,1.44-3.99-1.64.58-1.23c.1-.21.21-.47.33-.76.45-1.04,1.39-3.19,1.9-3.4l.81-.33-.81-.33c-.54-.22-1.04-.44-2.01-.87-1.19-.54-1.63-.79-1.63-.8l-.56-.33.03.65c.05.94-.61,2.42-1.38,4.14l-2.62,5.8-.34.75c-.59,1.3-1.14,2.53-1.9,2.9l-.6.29.58.32s.28.16,1.79.86c1.24.57,2.08.92,2.08.92l.72.29-.26-.73c-.19-.54.78-2.72,1.14-3.54l.11-.25,1.23-2.64,4.15,1.73-.8,2.26c-.05.12-.11.3-.18.52-.28.84-1.13,3.4-1.77,3.57l-.98.26.93.4c.69.29,1.11.44,1.71.66l.29.1c.88.32,1.98.69,1.98.69l.72.25-.28-.71c-.21-.53.44-2.29.87-3.46l2.25-6.23.26-.7c.43-1.17,1.14-3.13,1.79-3.6ZM25.28,220.19l-1.99,5.51c-.53,1.5-1.44,3.66-1.13,4.44,0,0-1.09-.38-1.98-.69-.76-.27-1.19-.41-1.99-.76.97-.26,1.89-3.5,2.19-4.31l.91-2.57-4.76-1.98-1.38,2.94c-.45,1.02-1.52,3.34-1.27,4.06,0,0-.84-.34-2.07-.91-1.45-.67-1.77-.84-1.77-.84,1.02-.5,1.63-2.15,2.4-3.82l2.49-5.51c.84-1.89,1.6-3.52,1.54-4.6,0,0,.44.26,1.67.82.98.44,1.47.66,2.02.88-.77.31-1.85,3.09-2.42,4.34l-.73,1.56,4.65,1.92.71-1.77c.33-.9,1.49-3.6,1.24-4.52,0,0,.95.35,2,.73.79.29,1.82.65,1.82.65-.86.62-1.65,3.11-2.17,4.46Z"/>
    <path class="st1" d="M15.57,203.67c2.47,1.18,4.43-1.63,5.89-4.7,1.47-3.07,2.41-6.34-.06-7.52-2.47-1.18-4.42,1.61-5.88,4.68-1.47,3.07-2.43,6.36.05,7.54ZM15.84,196.28c1.53-3.2,2.98-4.76,4.42-4.76.33,0,.66.08,1,.24.99.47,1.42,1.36,1.31,2.71-.09,1.12-.56,2.55-1.41,4.35-1.54,3.22-2.99,4.78-4.43,4.78-.32,0-.66-.08-.99-.24-.99-.47-1.42-1.36-1.3-2.72.1-1.13.56-2.56,1.42-4.36Z"/>
    <path class="st1" d="M12.13,187.31c1.48.91,2.55,1.57,2.81,2.66l.2.82c-1.14.9-2.14,2.18-2.9,3.77-1,2.08-1.33,4.24-.95,6.07.42,2.01,1.66,3.57,3.59,4.49.95.45,1.92.68,2.88.68,2.8,0,5.42-1.97,6.99-5.27.78-1.63,1.15-3.3,1.1-4.82l.9-.42c.48-.22.79-.3,1.14-.3.52,0,1.22.19,2.23.52l-2.63,8.85c-.44,1.67-1.25,3.74-1.72,4.04l-.56.37.62.25c.07.03.72.28,2.04.65,1.23.34,1.99.5,1.99.5l.77.17-.4-.68c-.09-.16-.03-.9.79-3.64.08-.29.16-.52.19-.67l2.61-8.78c1.91.5,2.13.74,2.73,1.6l.36.53-.13.3.24-.14.07.1v-.14s.61-.34.61-.34c.65-.38,1-.54,1.65-.54.37,0,.84.06,1.49.18l-1.46,9.14c-.18,1.5-.69,3.87-1.07,4.17l-.58.45.72.17c.19.04.91.2,2.01.35,1.24.17,2.14.27,2.14.27l.83.09-.52-.66c-.12-.16-.18-.95.23-3.9.03-.2.05-.37.06-.47l1.42-9.01c2.19.29,2.49.56,3.34,1.33l.62.55-.14-3.33.57.58c.36.37.32,2.51.3,3.79v.8s-.28,6.18-.28,6.18c-.01,1.7-.24,3.89-.51,4.16l-.54.54.76.06s2.34.19,5.26.23c.89.01,1.69.02,2.36.02,1.33,0,2.15-.02,2.15-.02h.29s.83-4.69.83-4.69l-.9,1.29c-.85,1.2-2.83,1.45-5.54,1.45h-.36s.17-5.58.17-5.58l3.92.02c.74,0,.74-.59.75-.98,0-.34,0-.98-.75-.99l-3.85-.02.13-4.57c2.26.02,3.94.11,4.98.98l.71.59-.55-3.58-.32.02s-.61.03-1.66.03c-.72,0-1.66-.01-2.8-.06-1.73-.07-1.9-.08-3.07-.16l-2.04-.14v-.08s-.31-.03-.31-.03c-.02,0-2.46-.23-4.99-.61-2.16-.33-3.94-.71-4.68-.87h-.23l-1.08,2.49.27-2.73-.3-.07s-2.17-.51-4.73-1.23c-2.43-.69-3.85-1.22-4.17-1.29l-.14-.69-2.28,3.39c-.02-.35-.07-.7-.14-1.03-.42-2.01-1.66-3.56-3.59-4.48-.95-.45-1.92-.68-2.88-.68-1.36,0-2.68.46-3.85,1.32l1.19-3.07-.27-.15s-2.42-1.36-4.68-2.85c-1.45-.96-2.92-2-4.35-3.1l-.07-.06-.2-.1-2.87,2.15.96.05c1.27.07,2,.32,3.79,1.67l-5.22,7.45-.37.51c-.68.94-1.96,2.7-2.55,2.84l-.73.18.17.13.4.24q0,.05.13.15c.24.17.91.66,1.61,1.18.84.63,1.76,1.21,1.77,1.22l.46.3.07-.55c.09-.7,1.28-2.66,2.05-3.77l5.38-7.78.08.05ZM53.57,197.84c2.87.11,4.49.03,4.49.03l.36,2.36c-1.12-.93-2.8-1.04-5.54-1.06l-.15,5.27,4.21.02c.38,0,.4.22.4.64,0,.42-.01.64-.41.63l-4.25-.02-.19,6.28c3.29.04,5.55-.16,6.55-1.59l-.5,2.85s-1.82.04-4.49,0c-2.94-.04-5.24-.23-5.24-.23.49-.48.61-3.54.62-4.4l.27-6.16c.01-1.64.16-4.29-.39-4.85,2.39.16,2.08.16,4.27.25ZM38.5,195.95s2.06.48,4.62.87c2.58.39,5.01.61,5.01.61l.1,2.35c-.96-.86-1.33-1.13-3.87-1.45l-1.47,9.35c-.1.86-.65,4.11-.23,4.65,0,0-.89-.1-2.13-.27-1.23-.18-1.99-.35-1.99-.35.6-.47,1.1-3.55,1.21-4.41l1.51-9.46c-2.21-.44-2.66-.27-3.72.34l.96-2.22ZM27.94,192.98s1.51.61,4.39,1.43c2.62.74,4.74,1.23,4.74,1.23l-.23,2.34c-.7-1.01-1.02-1.26-3.25-1.83l-2.71,9.1c-.22.83-1.3,3.98-.95,4.58,0,0-.75-.16-1.97-.5-1.36-.38-2.01-.63-2.01-.63.7-.46,1.58-3.15,1.87-4.25l2.72-9.16c-2.31-.77-2.85-.83-3.96-.31l1.34-2ZM21.96,190.29c3.85,1.84,4.39,6.09,2.48,10.09-1.9,3.99-5.54,6.27-9.41,4.42-3.87-1.85-4.38-6.11-2.48-10.1,1.91-4,5.56-6.26,9.41-4.42ZM6.38,194.84c-.68.97-2.01,3.1-2.11,3.92,0,0-.91-.58-1.75-1.2-.87-.65-1.7-1.25-1.7-1.25.83-.2,2.26-2.32,3.13-3.49l5.42-7.73c-2.03-1.57-2.82-1.88-4.25-1.95l1.93-1.45s1.85,1.47,4.39,3.14c2.28,1.51,4.7,2.86,4.7,2.86l-.85,2.19c-.32-1.33-1.63-2.05-3.33-3.1l-5.57,8.05Z"/>
    <path class="st1" d="M34.7,218.96c-2.65-.7-4.02,2.34-4.87,5.56-.85,3.22-1.16,6.56,1.49,7.26,2.65.7,4.03-2.36,4.87-5.58.85-3.22,1.15-6.54-1.5-7.24ZM35.86,226.11c-.96,3.65-2.2,5.42-3.8,5.42-.21,0-.43-.03-.65-.09-1.06-.28-1.65-1.06-1.8-2.38-.12-1.11.06-2.56.56-4.45.96-3.63,2.19-5.4,3.79-5.4.21,0,.43.03.65.09,1.06.28,1.65,1.06,1.8,2.37.13,1.1-.05,2.55-.55,4.44Z"/>
    <path class="st1" d="M115.15,195.21l-.1-.09.04-.37-.08-.02c-.73-.17-1.9-1.72-2.6-2.64-.18-.24-.35-.46-.49-.63l-3.68-4.74c-2.19-2.84-2.41-3.72-2.42-3.92l-.04-.64-.53.39c-.12.08-.82.6-1.59,1.12-.86.57-1.46.98-1.46.98l-.06.04,3.06,9.37-7.79-6.63-.22.12c-.06.03-.72.39-1.46.76-.93.46-2.31,1.13-2.31,1.13l-.2.1.74.29c.83.33,1.99,2.51,2.56,3.56l3.29,6.19c.58,1.08,1.54,2.88,1.44,3.38l-.06.29-.43-.13c-.35-.11-1.19-.61-2.87-2.79l-6.8-8.43c-.46-.53-.88-.88-1.5-.88-.32,0-.66.09-1.19.31-.77.32-1.46.74-1.92,1.03l-.35.28.35.3c.13.11.29.24.38.46.13.31.18.72.21,1.07l.41,12.05c.03.86-.06,1.4-.27,1.77l-.14.24-.18-.12c-.56-.38-1.06-2.54-1.3-3.58l-1.56-6.56c-.06-.24-.13-.52-.2-.82-.28-1.1-.75-2.94-.57-3.41l.26-.71-.72.27s-.56.21-1.83.57c-1.3.37-2.63.75-2.63.75l.58.42c.48.35,1.04,2.54,1.28,3.49l.51,2.01-3.96.97-.3-1.58-.11-.59c-.17-.95-.57-3.16-.34-3.63l.34-.69-.74.2s-.68.18-2,.44c-1.12.22-2.22.43-2.56.49l.06-.07-.95.19c-.05,0-.4.07-1.24.19-.88.12-1.17.15-1.19.15l-.83.08.64.54c.29.25.78,2.54.95,4.18l.5,4.06-7.05-8.32-3.34.12.73.59c.15.12.37.87.6,3.78.02.28.04.52.06.66l.35,6.17c.14,1.31.12,3.9-.15,4.23l-.49.61,4.18-.19-.71-.58c-.21-.17-.39-1.35-.54-3.53-.02-.33-.04-.6-.06-.75l-.23-4.44,6.8,7.8c.54.62,1.08.92,1.71.92.07,0,.14,0,.21-.01.65-.07,1.17-.45,1.36-.78l.17-.3-.3-.17c-.44-.25-.71-2.84-.83-3.96l-.71-6.13c-.01-.13-.04-.32-.07-.55-.36-2.84-.29-3.63-.17-3.78l.38-.48.65.35c.14.08.55.63,1.19,4.13l1.16,6.22c.52,3.3.38,3.97.3,4.11l-.39.64.74-.12s.81-.13,1.98-.37l2.92-.6-.77-.46c-.11-.07-.52-.56-1.1-4.09l-.02-.15-.48-2.57,4.08-1,.63,2.51c.45,1.78.83,4.11.65,4.43l-.4.72.8-.21s1.43-.37,2.07-.57c.68-.21,1.76-.52,1.88-.56h0s.84-.23.84-.23c0,0,.44-.13,1.24-.39.8-.26,1.29-.44,1.29-.44l.75-.27-.7-.37c-.06-.03-.18-.11-.25-.28-.11-.26-.15-.71-.2-1.24-.02-.25-.04-.51-.07-.76l-.14-2.29,4.15-1.62,1.17,1.46c.11.15.23.31.4.54.32.42.72.95.84,1.25.16.4.12.61.07.77l-.19.67.65-.25s.87-.33,2.19-.92c1.31-.58,2-.9,2-.9l.31-.14h0s.63-.29.63-.29c0,0,.4-.19,1.07-.51.67-.32,1.2-.61,1.2-.61l.75-.4-.81-.25c-.62-.19-1.77-2.41-2.32-3.48l-.22-.42-1.79-3.3,6.21,5.14c.38.3.77.45,1.17.45.37,0,.73-.13,1.07-.39.25-.19.51-.51.65-.74l.07-.18-2.65-8.48,2.91,3.8c1.4,1.84,2.12,3.02,2.16,3.52l.04.61.5-.35s.71-.49,1.62-1.11c.55-.37,1.15-.81,1.78-1.3l.08-.06-.06-.08ZM71.07,207.6c.24,2.29.48,3.93,1,4.23-.13.24-.54.55-1.09.6-.66.07-1.16-.25-1.62-.78l-7.47-8.56.28,5.45c.09.86.19,4.1.72,4.54l-2.49.11c.43-.53.32-3.63.23-4.49l-.35-6.15c-.09-.86-.25-4.26-.79-4.69l2.28-.08,7.65,9.09-.64-5.23c-.09-.86-.56-3.98-1.07-4.41,0,0,.27-.03,1.2-.15.93-.13,1.26-.19,1.26-.19-.43.54.07,3.73.16,4.59l.71,6.13ZM84.76,209.25c-.64.2-2.06.56-2.06.56.33-.59-.41-3.87-.62-4.69l-.71-2.85-4.74,1.16.54,2.9c.16.94.65,4.09,1.29,4.48,0,0-.66.14-2.05.42-1.16.24-1.96.37-1.96.37.36-.59-.12-3.52-.27-4.45l-1.15-6.13c-.21-1.14-.74-4.03-1.37-4.37,0,0,.62-.12,1.97-.38,1.36-.26,2.02-.44,2.02-.44-.33.69.25,3.46.41,4.43l.37,1.95,4.67-1.14-.5-1.99c-.27-1.05-.85-3.58-1.5-4.05,0,0,.64-.19,1.94-.55,1.3-.37,1.86-.58,1.86-.58-.26.7.46,3.16.76,4.43l1.44,6.03c.26,1.06.79,3.79,1.57,4.33,0,0-1.18.34-1.9.56ZM98.64,204.36c-1.31.58-2.17.91-2.17.91.08-.27.09-.56-.08-1-.18-.47-.85-1.26-1.28-1.86l-1.34-1.68-4.63,1.81.16,2.54c.1.87.11,1.66.3,2.11.09.22.25.37.41.45,0,0-.48.18-1.28.43-.8.26-1.23.38-1.23.38.28-.48.34-1.14.32-1.96l-.41-12.05c-.04-.44-.09-.85-.24-1.19-.13-.31-.35-.48-.5-.61.53-.34,1.19-.72,1.86-1,1.06-.45,1.51-.43,2.29.47l6.79,8.42c1.24,1.61,2.33,2.69,3.04,2.9,0,0-.69.32-2,.9ZM113.16,196.36c-.93.63-1.63,1.11-1.63,1.11-.07-.92-1.84-3.18-2.36-3.87l-3.99-5.2,3.21,10.26c-.12.2-.35.49-.56.65-.63.48-1.25.39-1.81-.06l-7.6-6.3,2.66,4.9c.65,1.24,1.9,3.82,2.75,4.08,0,0-.52.28-1.19.6-.66.32-1.06.51-1.06.51.15-.72-1.09-2.86-1.81-4.23l-2.96-5.56c-.9-1.67-1.89-3.38-2.74-3.72.66-.32.86-.42,1.8-.88.78-.39,1.48-.77,1.48-.77l8.55,7.28-3.36-10.3s.45-.31,1.31-.88c.85-.57,1.62-1.14,1.62-1.14.07.92,1.85,3.27,2.49,4.11l3.68,4.74c.78.98,2.24,3.15,3.28,3.39,0,0-.83.66-1.77,1.29Z"/>
    <path class="st1" d="M103.92,224.58c-.14,0-.3-.04-.53-.12-2.23-.84-4.66-2.69-5.49-3.35.78-.67,1.15-1.38,1.15-1.38.51-.89.69-1.89.51-2.88-.06-.35-.15-.66-.26-.91-.14-.33-.29-.61-.48-.88-.55-.79-1.22-1.27-2.16-1.55-.48-.14-1-.21-1.53-.21-1.04,0-2.17.26-3.45.8-3.06,1.28-4.48,1.69-4.49,1.69l-.46.13.02-.05-.73.26c-.41.15-.98.31-1.94.58-1.25.36-1.92.54-1.95.55l-.76.21.67.42c.4.26.95,2.33,1.27,3.57l1.76,6.63c.26,1.1.24,1.92-.04,2.45-.24.45-.72.77-1.3.88-.16.03-.32.04-.47.04-.4,0-.75-.1-1.02-.3-.53-.38-.88-1.05-1.14-2.17l-1.47-6.2c-.59-2.7-.6-3.97-.43-4.24l.46-.73-.84.2s-.65.16-2.02.41c-1.25.23-2.09.36-2.26.38l-.81.11.64.51c.65.52,1.13,2.69,1.42,4l.05.23,1.15,4.88c1.03,4.5,4.61,4.85,5.68,4.85.5,0,.99-.06,1.46-.18,3.47-.87,5.19-3.71,4.39-7.24l-1.32-4.98c-.03-.15-.09-.36-.16-.61-.25-.94-.85-3.14-.58-3.8l.17-.42.48.27c.61.34,1.58,3.12,1.9,4.04l2.01,5.98c.25.74,1.01,3,.82,3.75l-.15.59.59-.16c.19-.05.89-.26,1.97-.65,1.22-.44,2.02-.76,2.02-.76l.68-.26-.63-.36c-.51-.3-1.25-2.39-1.61-3.4l-3.13-8.93c-.02-.07-.04-.12-.04-.16.11-.07.34-.18.55-.27.26-.1.61-.22,1.05-.22.25,0,.51.04.78.12.53.15,1.25.76,1.67,1.77.43,1.03.46,1.78.08,2.6-.24.57-.85,1.19-1.4,1.42l-.13.06c-.26.11-.33.39-.25.6.21.5,4.26,4.03,6.61,4.93.15.06.46.16.89.16.62,0,1.57-.21,2.56-1.22.36-.37.59-.84.64-1.12l.11-.63-.59.25c-.05.02-.11.03-.18.03ZM86.87,221.07l1.33,4.99c.73,3.23-.78,5.97-4.14,6.81-2.36.59-5.76-.28-6.7-4.41l-1.15-4.89c-.3-1.37-.8-3.79-1.59-4.42,0,0,.89-.13,2.28-.38,1.39-.26,2.03-.41,2.03-.41-.36.57.02,2.84.38,4.5l1.47,6.21c.26,1.14.63,1.92,1.27,2.38.47.34,1.1.44,1.76.32.6-.11,1.22-.45,1.55-1.06.35-.64.34-1.56.08-2.69l-1.65-6.21c-.45-1.71-.97-3.85-1.53-4.21,0,0,.67-.18,1.95-.55.97-.28,1.54-.44,1.96-.59-.38.93.53,3.8.72,4.62ZM103.7,225.8c-1.36,1.39-2.63,1.15-3.06.98-2.34-.89-6.25-4.36-6.42-4.74,0,0-.04-.1.06-.14l.14-.06c.61-.25,1.31-.95,1.58-1.6.44-.96.36-1.82-.08-2.87-.46-1.1-1.27-1.79-1.9-1.97-.93-.28-1.63-.06-2.05.11,0,0-.56.22-.73.39,0,0-.11.09.02.47l2.96,8.45c.45,1.24,1.23,3.67,1.94,4.07,0,0-.8.31-2.01.75-1.21.44-1.95.64-1.95.64.25-.94-.69-3.51-.92-4.23l-1.91-5.7c-.48-1.38-1.35-3.84-2.06-4.23,0,0,1.4-.39,4.53-1.71,1.67-.7,3.29-1,4.74-.57.89.26,1.48.7,1.97,1.41.19.27.32.54.44.82.11.26.18.56.23.83.15.86.02,1.78-.47,2.64,0,0-.45.87-1.41,1.55,0,0,3.08,2.61,5.92,3.68.33.12.68.21.97.09-.03.2-.22.61-.54.93Z"/>
    <path class="st1" d="M89.1,201.19l3.82-1.46-4.11-5.7.29,7.16ZM92.37,199.56l-2.94,1.12-.22-5.51,3.17,4.39Z"/>
  </g>
  <path class="st0" d="M11.43,184.83c2.28,1.51,4.7,2.86,4.7,2.86l-.85,2.19c-.32-1.33-1.63-2.05-3.33-3.1l-5.57,8.05c-.68.97-2.01,3.1-2.11,3.92,0,0-.91-.58-1.75-1.2-.87-.65-1.7-1.25-1.7-1.25.83-.2,2.26-2.32,3.13-3.49l5.42-7.73c-2.03-1.57-2.82-1.88-4.25-1.95l1.93-1.45s1.85,1.47,4.39,3.14M15.03,204.8c-3.87-1.85-4.38-6.11-2.48-10.1,1.91-4,5.56-6.26,9.41-4.42,3.85,1.84,4.39,6.09,2.48,10.09-1.9,3.99-5.54,6.27-9.41,4.42M21.41,191.44c-2.47-1.18-4.42,1.61-5.88,4.68-1.47,3.07-2.43,6.36.05,7.54,2.47,1.18,4.43-1.63,5.89-4.7,1.47-3.07,2.41-6.34-.06-7.52ZM32.33,194.41c2.62.74,4.74,1.23,4.74,1.23l-.23,2.34c-.7-1.01-1.02-1.26-3.25-1.83l-2.71,9.1c-.22.83-1.3,3.98-.95,4.58,0,0-.75-.16-1.97-.5-1.36-.38-2.01-.63-2.01-.63.7-.46,1.58-3.15,1.87-4.25l2.72-9.16c-2.31-.77-2.85-.83-3.96-.31l1.34-2s1.51.61,4.39,1.43M43.12,196.82c2.58.39,5.01.61,5.01.61l.1,2.35c-.96-.86-1.33-1.13-3.87-1.45l-1.47,9.35c-.1.86-.65,4.11-.23,4.65,0,0-.89-.1-2.13-.27-1.23-.18-1.99-.35-1.99-.35.6-.47,1.1-3.55,1.21-4.41l1.51-9.46c-2.21-.44-2.66-.27-3.72.34l.96-2.22s2.06.48,4.62.87M52.68,205.71l-.19,6.28c3.29.04,5.55-.16,6.55-1.59l-.5,2.85s-1.82.04-4.49,0c-2.94-.04-5.24-.23-5.24-.23.49-.48.61-3.54.62-4.4l.27-6.16c.01-1.64.16-4.29-.39-4.85,2.39.16,2.08.16,4.27.25,2.87.11,4.49.03,4.49.03l.36,2.36c-1.12-.93-2.8-1.04-5.54-1.06l-.15,5.27,4.21.02c.38,0,.4.22.4.64,0,.42-.01.64-.41.63l-4.25-.02M71.07,207.6c.24,2.29.48,3.93,1,4.23-.13.24-.54.55-1.09.6-.66.07-1.16-.25-1.62-.78l-7.47-8.56.28,5.45c.09.86.19,4.1.72,4.54l-2.49.11c.43-.53.32-3.63.23-4.49l-.35-6.15c-.09-.86-.25-4.26-.79-4.69l2.28-.08,7.65,9.09-.64-5.23c-.09-.86-.56-3.98-1.07-4.41,0,0,.27-.03,1.2-.15.93-.13,1.26-.19,1.26-.19-.43.54.07,3.73.16,4.59l.71,6.13M85.1,204.36c.26,1.06.79,3.79,1.57,4.33,0,0-1.18.34-1.9.56-.64.2-2.06.56-2.06.56.33-.59-.41-3.87-.62-4.69l-.71-2.85-4.74,1.16.54,2.9c.16.94.65,4.09,1.29,4.48,0,0-.66.14-2.05.42-1.16.24-1.96.37-1.96.37.36-.59-.12-3.52-.27-4.45l-1.15-6.13c-.21-1.14-.74-4.03-1.37-4.37,0,0,.62-.12,1.97-.38,1.36-.26,2.02-.44,2.02-.44-.33.69.25,3.46.41,4.43l.37,1.95,4.67-1.14-.5-1.99c-.27-1.05-.85-3.58-1.5-4.05,0,0,.64-.19,1.94-.55,1.3-.37,1.86-.58,1.86-.58-.26.7.46,3.16.76,4.43l1.44,6.03M93.76,200.73l-4.63,1.81.16,2.54c.1.87.11,1.66.3,2.11.09.22.25.37.41.45,0,0-.48.18-1.28.43-.8.26-1.23.38-1.23.38.28-.48.34-1.14.32-1.96l-.41-12.05c-.04-.44-.09-.85-.24-1.19-.13-.31-.35-.48-.5-.61.53-.34,1.19-.72,1.86-1,1.06-.45,1.51-.43,2.29.47l6.79,8.42c1.24,1.61,2.33,2.69,3.04,2.9,0,0-.69.32-2,.9-1.31.58-2.17.91-2.17.91.08-.27.09-.56-.08-1-.18-.47-.85-1.26-1.28-1.86l-1.34-1.68M92.92,199.73l-4.11-5.7.29,7.16,3.82-1.46ZM113.16,196.36c-.93.63-1.63,1.11-1.63,1.11-.07-.92-1.84-3.18-2.36-3.87l-3.99-5.2,3.21,10.26c-.12.2-.35.49-.56.65-.63.48-1.25.39-1.81-.06l-7.6-6.3,2.66,4.9c.65,1.24,1.9,3.82,2.75,4.08,0,0-.52.28-1.19.6-.66.32-1.06.51-1.06.51.15-.72-1.09-2.86-1.81-4.23l-2.96-5.56c-.9-1.67-1.89-3.38-2.74-3.72.66-.32.86-.42,1.8-.88.78-.39,1.48-.77,1.48-.77l8.55,7.28-3.36-10.3s.45-.31,1.31-.88c.85-.57,1.62-1.14,1.62-1.14.07.92,1.85,3.27,2.49,4.11l3.68,4.74c.78.98,2.24,3.15,3.28,3.39,0,0-.83.66-1.77,1.29M25.63,215.09c.79.29,1.82.65,1.82.65-.86.62-1.65,3.11-2.17,4.46l-1.99,5.51c-.53,1.5-1.44,3.66-1.13,4.44,0,0-1.09-.38-1.98-.69-.76-.27-1.19-.41-1.99-.76.97-.26,1.89-3.5,2.19-4.31l.91-2.57-4.76-1.98-1.38,2.94c-.45,1.02-1.52,3.34-1.27,4.06,0,0-.84-.34-2.07-.91-1.45-.67-1.77-.84-1.77-.84,1.02-.5,1.63-2.15,2.4-3.82l2.49-5.51c.84-1.89,1.6-3.52,1.54-4.6,0,0,.44.26,1.67.82.98.44,1.47.66,2.02.88-.77.31-1.85,3.09-2.42,4.34l-.73,1.56,4.65,1.92.71-1.77c.33-.9,1.49-3.6,1.24-4.52,0,0,.95.35,2,.73M31.01,232.97c-4.15-1.09-5.46-5.1-4.36-9.29,1.11-4.2,4.24-7.02,8.37-5.94,4.12,1.08,5.47,5.08,4.37,9.29-1.1,4.18-4.23,7.03-8.37,5.94M34.7,218.96c-2.65-.7-4.02,2.34-4.87,5.56-.85,3.22-1.16,6.56,1.49,7.26,2.65.7,4.03-2.36,4.87-5.58.85-3.22,1.15-6.54-1.5-7.24ZM42.24,234.45s.26-.29.44-.87c.25-.82.42-2.39.61-3.61l1.16-8.97c-2.47-.31-3.1-.13-4.19.51l1.02-2.3c.77.17,2.48.36,4.55.62,1.39.17,5.53.55,5.53.55l.14,2.3c-.91-1.06-1.86-1.15-3.92-1.31l-1.16,9c-.1.84-.56,3.75-.11,4.61-.5-.06-1.32-.15-2.01-.22-.72-.07-1.66-.24-2.07-.31M61.94,231.33c.03,2.7-2.17,4.66-5.55,4.61-2.63-.04-4-1.12-4.53-1.56l.55-2.56c.82,1.63,2.17,2.82,3.69,2.85,1.59.02,2.84-.91,2.87-2.49.02-1.15-.61-1.84-3.27-3.22-2.54-1.31-3.49-2.62-3.49-4.58,0-2.66,2.31-4.01,5.03-4.01,2,0,3.39.61,4.27,1.08l-.56,2.35c-1.21-1.62-2.31-2.22-3.64-2.24-1.3-.02-2.23.69-2.22,2.03,0,1.46,1.62,2.25,3.78,3.46,2.49,1.39,3.05,2.79,3.06,4.29M74.25,223.06c.1.32.15.7.18,1,.03.28.04.65,0,1-.07.88-.49,1.89-1.17,2.61-1.05,1.1-2.42,1.64-4.23,1.73-.7.04-.87-.17-.91-.68v-.11s-.02-.2.13-.21l.18-.02c.54-.07,1.33-.23,1.97-1.01.61-.8.82-1.86.71-3-.11-1.19-.47-2.04-1.27-2.65-.69-.53-1.51-.7-2.34-.64,0,0-.34.03-.71.09,0,0-.22.02-.2.23l.9,9.31c.08.82.3,3.7.97,4.3,0,0-.77.08-2.21.2-1.1.09-1.96.11-1.96.11.29-.71.24-1.77.17-3l-.7-7.34c-.08-.84-.22-3.72-.91-4.43,0,0,1.84-.27,5.25-.59,1.78-.17,3.24.06,4.5.91.82.55,1.39,1.36,1.62,2.19M88.2,226.06c.73,3.23-.78,5.97-4.14,6.81-2.36.59-5.76-.28-6.7-4.41l-1.15-4.89c-.3-1.37-.8-3.79-1.59-4.42,0,0,.89-.13,2.28-.38,1.39-.26,2.03-.41,2.03-.41-.36.57.02,2.84.38,4.5l1.47,6.21c.26,1.14.63,1.92,1.27,2.38.47.34,1.1.44,1.76.32.6-.11,1.22-.45,1.55-1.06.35-.64.34-1.56.08-2.69l-1.65-6.21c-.45-1.71-.97-3.85-1.53-4.21,0,0,.67-.18,1.95-.55.97-.28,1.54-.44,1.96-.59-.38.93.53,3.8.72,4.62l1.33,4.99M103.27,224.79c.33.12.68.21.97.09-.03.2-.22.61-.54.93-1.36,1.39-2.63,1.15-3.06.98-2.34-.89-6.25-4.36-6.42-4.74,0,0-.04-.1.06-.14l.14-.06c.61-.25,1.31-.95,1.58-1.6.44-.96.36-1.82-.08-2.87-.46-1.1-1.27-1.79-1.9-1.97-.93-.28-1.63-.06-2.05.11,0,0-.56.22-.73.39,0,0-.11.09.02.47l2.96,8.45c.45,1.24,1.23,3.67,1.94,4.07,0,0-.8.31-2.01.75-1.21.44-1.95.64-1.95.64.25-.94-.69-3.51-.92-4.23l-1.91-5.7c-.48-1.37-1.35-3.84-2.06-4.23,0,0,1.4-.39,4.53-1.71,1.67-.7,3.29-1,4.74-.57.89.26,1.48.7,1.97,1.41.19.27.32.54.44.82.11.26.18.56.23.83.15.86.02,1.78-.47,2.64,0,0-.45.87-1.41,1.55,0,0,3.08,2.61,5.92,3.68"/>
</svg>